PathFileType	4	(X/Y/Z)	C:/Users/opensim2020/Desktop/walking_exp_matlab/subject01_walking09_straight_03.trc																																																																																																																															
DataRate	CameraRate	NumFrames	NumMarkers	Units	OrigDataRate	OrigDataStartFrame	OrigNumFrames																																																																																																																											
100	100	7	43	mm	100	3061	348																																																																																																																											
Frame#	Time	LFHD			RFHD			LBHD			RBHD			C7			T10			CLAV			STRN			RBAK			LSHO			LUPA			LELB			LFRM			LWRA			LWRB			LFIN			RSHO			RUPA			RELB			RFRM			RWRA			RWRB			RFIN			LASI			RASI			LPSI			RPSI			LTHI			LKNE			LTIB			LANK			LHEE			LTOE			RTHI			RKNE			RTIB			RANK			RHEE			RTOE			*39			*40			*41			*42		
		X1	Y1	Z1	X2	Y2	Z2	X3	Y3	Z3	X4	Y4	Z4	X5	Y5	Z5	X6	Y6	Z6	X7	Y7	Z7	X8	Y8	Z8	X9	Y9	Z9	X10	Y10	Z10	X11	Y11	Z11	X12	Y12	Z12	X13	Y13	Z13	X14	Y14	Z14	X15	Y15	Z15	X16	Y16	Z16	X17	Y17	Z17	X18	Y18	Z18	X19	Y19	Z19	X20	Y20	Z20	X21	Y21	Z21	X22	Y22	Z22	X23	Y23	Z23	X24	Y24	Z24	X25	Y25	Z25	X26	Y26	Z26	X27	Y27	Z27	X28	Y28	Z28	X29	Y29	Z29	X30	Y30	Z30	X31	Y31	Z31	X32	Y32	Z32	X33	Y33	Z33	X34	Y34	Z34	X35	Y35	Z35	X36	Y36	Z36	X37	Y37	Z37	X38	Y38	Z38	X39	Y39	Z39	X40	Y40	Z40	X41	Y41	Z41	X42	Y42	Z42	X43	Y43	Z43
																																																																																																																																		
218	2.17	222.03616	1680.40076	-1118.82312	230.08443	1692.61133	-1005.75854	114.78396	1616.95764	-1113.01221	120.40329	1627.79053	-992.76306	96.46542	1437.26587	-1063.90601	59.6461	1146.14453	-1056.60364	240.09064	1370.41199	-1055.04236	282.23486	1214.07239	-1056.35425	38.44427	1244.28809	-986.53485	187.31815	1397.30249	-1218.60535	183.50677	1213.8689	-1306.07849	201.06424	1063.98767	-1313.00085	268.20416	969.93042	-1332.92786	369.55515	877.44391	-1302.33813	323.04977	860.89526	-1336.23413	388.25531	806.51953	-1339.6073	171.15901	1398.44031	-907.14221	109.08421	1200.25916	-805.66754	110.17149	1075.59741	-799.39197	139.97568	959.61902	-764.94464	222.70361	844.48431	-782.15802	180.3002	845.4787	-741.93817	219.85855	767.67712	-743.82556	237.21098	934.00708	-1150.55627	222.6581	944.92285	-933.26532	47.20138	947.6156	-1107.16931	41.08273	951.55725	-961.47052	212.24406	598.97015	-1189.79382	204.91191	465.27988	-1167.27185	145.00682	283.49286	-1170.21643	105.67239	71.66145	-1108.3075	59.05873	43.88232	-1055.89246	252.60648	35.51812	-1113.63892	256.7464	625.09033	-857.54944	303.78992	472.08304	-873.09308	206.35612	323.94141	-871.62946	124.73756	135.11084	-919.81653	74.8923	108.67171	-978.57996	242.96346	57.18565	-898.95313	213.45723	1722.87695	-1030.24707	1973.18591	1023.4212	-3101.79565	2012.52625	1022.01575	-3140.63818	NaN	NaN	NaN
219	2.18	227.66481	1680.40247	-1118.71155	235.83913	1692.56812	-1005.5697	120.42622	1616.90247	-1112.87244	126.06979	1627.68152	-992.56116	102.2955	1437.28162	-1063.63538	65.21507	1146.2793	-1056.77393	245.8606	1370.39502	-1054.97839	287.79779	1213.97937	-1056.51208	44.04438	1244.3606	-986.56207	193.04027	1397.57214	-1218.4375	189.64284	1214.31946	-1306.19568	208.10764	1064.47205	-1313.32983	276.66943	971.224	-1333.09131	379.49612	880.54211	-1302.21631	333.15848	863.13116	-1336.13977	399.37238	809.9646	-1339.54187	176.89725	1398.17163	-907.01062	114.61097	1199.94336	-805.75836	115.30994	1075.45264	-799.68463	144.38237	959.37366	-765.33081	226.59421	843.59845	-782.2215	184.11748	844.92786	-742.25629	223.04913	766.89478	-744.14075	242.24486	933.86084	-1150.88867	228.33928	945.24536	-933.53137	52.41095	947.40808	-1107.04919	46.64798	951.57074	-961.39832	215.52792	598.78821	-1189.77637	206.86653	464.94717	-1167.43823	146.09238	283.45407	-1170.15967	105.80325	71.73425	-1108.25049	58.83466	44.22322	-1055.89453	252.59908	35.58191	-1113.73193	263.64795	625.72803	-857.65051	311.92746	473.37991	-873.35529	219.28799	322.00534	-871.28485	144.93948	130.00995	-918.63971	96.16692	101.74274	-977.72424	265.8345	56.1968	-897.44836	219.10577	1722.84497	-1030.06445	1972.97974	1024.06091	-3102.02612	2012.48999	1021.9917	-3140.82813	NaN	NaN	NaN
220	2.19	233.3685	1680.30981	-1118.29626	241.50125	1692.48413	-1005.26825	126.21447	1616.79602	-1112.52747	131.84053	1627.59351	-992.19055	108.01808	1437.25671	-1063.51611	70.69175	1146.31165	-1056.81848	251.62386	1370.29919	-1054.87585	293.43192	1213.84106	-1056.60754	49.7531	1244.34656	-986.50195	198.75676	1397.7356	-1218.32178	195.81715	1214.74243	-1306.34106	215.17152	1064.87012	-1313.7771	285.27359	972.46802	-1332.97473	389.34717	883.59241	-1301.92981	343.28238	865.25159	-1335.84058	410.48169	813.38177	-1339.16187	182.71819	1398.03259	-906.8338	120.28999	1199.89014	-805.71698	120.41321	1075.32373	-799.87817	148.90211	959.08038	-765.5329	230.48967	843.11127	-782.54224	187.89728	844.31384	-742.57562	226.41341	766.07251	-744.37708	247.24602	933.57318	-1151.24036	233.91457	945.39795	-933.87085	57.59307	947.22461	-1106.84119	52.23948	951.48737	-961.24811	218.74396	598.53345	-1189.68372	208.98819	464.60837	-1167.66321	147.20705	283.3894	-1170.05994	105.91083	71.82718	-1108.22559	58.87912	44.42924	-1055.75439	252.55936	35.5525	-1113.72314	270.40921	626.19464	-857.76666	319.88083	474.35992	-873.68982	232.74075	319.974	-870.6853	165.11026	125.08997	-917.32294	117.59189	94.75037	-976.49017	288.35526	55.56532	-895.84229	224.79367	1722.59033	-1029.96326	1973.19446	1023.4079	-3101.90601	2012.53394	1021.95142	-3140.67822	NaN	NaN	NaN
221	2.2	239.0394	1680.23767	-1117.98267	247.23274	1692.28467	-1004.85748	131.92519	1616.6123	-1112.16418	137.60358	1627.34436	-991.86084	113.76757	1437.14172	-1063.2771	76.25732	1146.20667	-1056.82922	257.33502	1370.13074	-1054.67371	299.00961	1213.63074	-1056.6886	55.4106	1244.24951	-986.35718	204.51488	1397.8302	-1218.05322	202.04248	1215.06555	-1306.40564	222.1228	1065.09875	-1314.14148	293.66504	973.64673	-1333.03992	399.04425	886.55072	-1301.49707	353.58173	867.31793	-1335.2124	421.61456	816.68207	-1338.40881	188.4845	1397.64661	-906.70709	125.79841	1199.61621	-805.72168	125.67364	1075.10974	-800.11334	153.40506	958.71558	-765.76544	234.26764	841.94769	-782.47083	191.69499	843.8031	-742.5426	229.75169	765.23102	-744.57043	252.80296	933.36926	-1151.70251	239.3396	945.43774	-934.59363	62.88255	946.99512	-1106.54419	58.00138	951.26917	-960.98395	222.03702	598.40637	-1189.44421	210.81033	464.29047	-1167.72949	148.30566	283.32205	-1170.11353	106.09342	71.93562	-1108.15125	59.03862	44.45169	-1055.71765	252.6178	35.57947	-1113.79224	276.57867	626.36871	-857.98798	327.5126	474.96201	-874.05463	245.57941	317.69058	-870.21167	185.32208	120.23086	-916.04749	138.7034	88.3205	-975.16138	311.01254	55.62968	-894.23657	230.5089	1722.31763	-1029.81775	1973.04431	1023.4021	-3101.84814	2012.495	1022.12549	-3140.65796	NaN	NaN	NaN
222	2.21	244.78102	1680.06885	-1117.56921	252.98358	1692.05481	-1004.38416	137.59573	1616.58081	-1111.90771	143.32942	1627.09448	-991.49915	119.51413	1436.98572	-1062.88586	81.89465	1146.08545	-1056.70349	263.10217	1369.88843	-1054.45605	304.61102	1213.37231	-1056.75415	61.07584	1244.09912	-986.25751	210.27744	1397.84717	-1217.82056	208.32133	1215.33411	-1306.47607	229.12865	1065.33191	-1314.36975	301.88364	974.72827	-1333.09705	408.6427	889.4856	-1300.9729	363.74829	869.38184	-1334.66016	432.4725	820.07019	-1337.98792	194.3672	1397.48291	-906.37439	131.1671	1199.13696	-805.75098	130.93088	1074.81995	-800.27759	157.99228	958.28046	-765.97986	238.12538	841.1933	-782.7691	195.62653	843.1001	-742.93542	233.07973	764.31854	-744.7171	257.72876	933.08759	-1151.95654	245.31613	945.4505	-934.85315	68.0831	946.56165	-1106.22791	63.70605	951.39069	-960.65155	225.32828	598.159	-1189.26331	212.82779	463.98489	-1167.96265	149.39461	283.27423	-1170.13818	106.28089	72.08184	-1108.05872	59.05526	44.71839	-1055.57483	252.6609	35.5364	-1113.78015	282.59579	626.67566	-858.03802	335.09286	475.56055	-874.43567	258.51224	315.63455	-869.5614	205.20158	116.01737	-914.75403	160.13283	81.80167	-973.37347	333.5704	56.11245	-892.77167	236.22449	1722.38208	-1028.90002	1973.15723	1023.36011	-3101.82959	2012.47144	1021.92078	-3140.7439	NaN	NaN	NaN
223	2.22	250.56084	1679.86877	-1116.99011	258.72928	1691.78809	-1003.77814	143.4709	1616.2738	-1111.3717	149.10208	1626.81958	-990.96826	125.21185	1436.7738	-1062.60535	87.60284	1145.94104	-1056.4137	268.85007	1369.60962	-1054.18457	310.39291	1213.10864	-1056.7312	66.8872	1243.78271	-986.03729	216.02998	1397.76746	-1217.47424	214.65314	1215.52087	-1306.4259	236.08344	1065.45532	-1314.66394	310.14389	975.78326	-1332.90076	418.18857	892.36554	-1300.36853	373.52316	871.31091	-1334.25183	443.22446	823.3551	-1337.21204	200.14403	1397.0481	-906.03699	136.76202	1198.93127	-805.61615	136.21837	1074.43738	-800.47913	162.57047	957.84814	-766.13495	242.31721	840.21344	-782.58167	199.5368	842.46149	-742.90198	236.56459	763.40576	-744.79431	262.71478	932.77246	-1152.22974	251.16313	945.36786	-935.13507	73.43181	946.26892	-1105.86902	69.48086	951.22192	-960.31683	228.66554	597.92505	-1189.05701	214.90784	463.60617	-1168.18762	150.4696	283.1929	-1170.18909	106.43591	72.18564	-1108.00256	59.08971	44.99817	-1055.52856	252.89532	35.40226	-1113.70715	288.31259	626.38416	-858.23462	342.3508	475.81802	-874.76788	271.27454	313.74988	-868.94714	225.19472	112.03815	-912.98663	181.57431	75.49619	-971.1012	356.1629	57.16725	-891.5155	241.96646	1721.92358	-1028.38599	1973.17822	1023.50659	-3101.8855	2012.53992	1022.21155	-3140.74976	NaN	NaN	NaN
224	2.23	256.39459	1679.67529	-1116.32813	264.48038	1691.40149	-1003.13721	149.09065	1616.28357	-1110.99316	154.88522	1626.49292	-990.39368	130.9489	1436.48291	-1062.16174	93.32568	1145.6665	-1056.14819	274.61667	1369.33936	-1053.81519	316.15591	1212.84937	-1056.71802	72.7474	1243.39929	-985.82031	221.77217	1397.6698	-1217.0354	221.0143	1215.6416	-1306.38391	242.95093	1065.479	-1314.72327	318.56311	976.82996	-1332.58875	427.71133	895.23834	-1299.93286	383.41641	873.37976	-1333.56494	453.9075	826.547	-1336.35571	205.89709	1396.62061	-905.69019	142.16214	1198.34497	-805.61676	141.60999	1074.00586	-800.47803	167.33813	957.32257	-766.17346	246.22141	839.35773	-782.70953	203.78915	841.78778	-742.89856	240.21478	762.47015	-744.82227	268.26724	932.2016	-1152.94482	257.49472	945.30737	-935.0686	78.87501	946.18469	-1105.44666	75.39428	951.19489	-959.99231	232.00702	597.58838	-1188.76501	216.77838	463.26523	-1168.25671	151.53101	283.15668	-1170.27515	106.6043	72.35329	-1107.97876	59.22368	45.21862	-1055.56189	253.17038	35.29864	-1113.58411	293.94571	626.24213	-858.17328	349.29712	475.96625	-875.17767	283.90152	311.89288	-868.30212	245.75774	108.09126	-911.26434	203.35664	69.21684	-969.21411	378.44745	58.48254	-890.58289	247.78743	1721.6145	-1027.65759	1973.19006	1023.46619	-3101.96362	2012.59314	1022.01508	-3140.64697	NaN	NaN	NaN
